<mxfile host="app.diagrams.net" modified="2023-09-13T01:39:52.407Z" agent="Mozilla/5.0 (Macintosh; Intel Mac OS X 10_15_7) AppleWebKit/537.36 (KHTML, like Gecko) Chrome/114.0.0.0 Safari/537.36" version="21.7.4" etag="m_TRcviIpF0RZk4rz3kZ" type="github">
  <diagram name="Page-1" id="4od0YM0MFYeVMsRr_3Rb">
    <mxGraphModel>
      <root>
        <mxCell id="0" />
        <mxCell id="1" parent="0" />
      </root>
    </mxGraphModel>
  </diagram>
</mxfile>
